inDegrees=yes
name=ik_S44_A05_T01
DataType=double
version=3
OpenSimVersion=4.3-2021-08-27-4bc7ad9
endheader
time	pelvis_tilt	pelvis_list	pelvis_rotation	pelvis_tx	pelvis_ty	pelvis_tz	hip_flexion_r	hip_adduction_r	hip_rotation_r	knee_angle_r	knee_angle_r_beta	ankle_angle_r	subtalar_angle_r	mtp_angle_r	hip_flexion_l	hip_adduction_l	hip_rotation_l	knee_angle_l	knee_angle_l_beta	ankle_angle_l	subtalar_angle_l	mtp_angle_l	lumbar_extension	lumbar_bending	lumbar_rotation	arm_flex_r	arm_add_r	arm_rot_r	elbow_flex_r	pro_sup_r	wrist_flex_r	wrist_dev_r	arm_flex_l	arm_add_l	arm_rot_l	elbow_flex_l	pro_sup_l	wrist_flex_l	wrist_dev_l
9.619999999999884	-4.26250582020764	-0.9298974965771666	30.04168014710129	0	0.9399999999999999	0	43.50049144835018	-10.50650863960729	-10.49782502987421	54.26199568650321	0.9470504834324418	0	0	0	43.50049144835018	-10.50650863960729	-10.49782502987421	54.26199568650321	0.9470504834324418	0	0	0	0.586511875701248	-4.359610475342152	11.47272492946665	54.4120168137505	-21.60647852696087	-8.002842098077791	42.25013910838302	89.75124996676905	0	0	17.59237496525827	-4.202300449868384	-1.079308597968193	51.98642894383742	135.0729925245522	0	0
9.639999999999883	-4.26595415589484	-0.922870228509318	30.36911091037584	0	0.9399999999999999	0	43.50122766601166	-10.50564008341633	-10.49727748565431	54.26223817804367	0.9470547157082312	0	0	0	43.50122766601166	-10.50564008341633	-10.49727748565431	54.26223817804367	0.9470547157082312	0	0	0	0.5839743419727706	-4.349219048981806	11.35167147998347	55.79797807241792	-21.05355258573254	-6.999911987200373	40.09884752844286	90.86121126087613	0	0	17.57529375239525	-4.13907188461357	-0.9098613290531695	51.93151138787054	135.0372109484301	0	0
9.659999999999883	-4.270099679260023	-0.9287621849486069	30.64647920757773	0	0.9399999999999999	0	43.50190820803576	-10.50483788530645	-10.49677153205522	54.2624622947143	0.9470586272820422	0	0	0	43.50190820803576	-10.50483788530645	-10.49677153205522	54.2624622947143	0.9470586272820422	0	0	0	0.5744612256431102	-4.350720400093015	11.23793858781272	57.03724971271005	-20.43219632182815	-6.144285411131469	37.97207868812232	91.81634510272455	0	0	17.62755354195898	-4.111422442681699	-0.8848390694154559	51.85606378616793	135.0868455843697	0	0
9.679999999999882	-4.280323695019984	-0.9480794445468688	30.93624405134481	0	0.9399999999999999	0	43.50277078729707	-10.50382274649222	-10.49613078854814	54.26274649312699	0.9470635874800726	0	0	0	43.50277078729707	-10.50382274649222	-10.49613078854814	54.26274649312699	0.9470635874800726	0	0	0	0.5518564240332755	-4.359753336797978	11.07807904394374	58.05045979876028	-19.63592714590239	-5.441832283842439	35.11883053002818	91.75149333036016	0	0	17.66385289223621	-4.069508258609426	-0.7641720300934773	51.83797034962446	135.0746411636964	0	0
9.699999999999882	-4.301402066304091	-0.9586459880722923	31.16618199793443	0	0.9399999999999999	0	43.50335218450457	-10.5031389250332	-10.49569900112983	54.2629379784344	0.9470669295291561	0	0	0	43.50335218450457	-10.5031389250332	-10.49569900112983	54.2629379784344	0.9470669295291561	0	0	0	0.5264198456196153	-4.356945210340722	11.01910783084598	58.90898178673366	-19.03920993486179	-4.876571559951109	33.35187213015811	91.6962241286292	0	0	17.77649047069147	-3.950344409121243	-0.7811835962804529	51.7238367858414	135.1873523873493	0	0
9.719999999999882	-4.30562181265439	-0.9677321425405763	31.32303152935038	0	0.9399999999999999	0	43.50394973546332	-10.50243688258377	-10.49525546973649	54.26313483169578	0.9470703652667104	0	0	0	43.50394973546332	-10.50243688258377	-10.49525546973649	54.26313483169578	0.9470703652667104	0	0	0	0.515840910124567	-4.361294232929091	10.94491350828875	59.48232456680999	-18.42365574485713	-4.52786428994063	31.9451316573684	92.04491759219289	0	0	17.83715345913996	-3.856247585057752	-0.8278780888210556	51.57169859368411	135.2974333600038	0	0
9.739999999999881	-4.300039705909418	-0.9807773334072885	31.49855892886051	0	0.9399999999999999	0	43.50450362081258	-10.50178681956245	-10.49484457106673	54.26331734503919	0.9470735507254818	0	0	0	43.50450362081258	-10.50178681956245	-10.49484457106673	54.26331734503919	0.9470735507254818	0	0	0	0.5124601189579719	-4.374063039727469	10.92978325106519	59.85750817613221	-17.88474455572536	-4.51774945003284	31.09158261886721	92.44271319816507	0	0	17.87830267272309	-3.801100521067163	-0.7071456310556795	51.53066555470109	135.3449936999473	0	0
9.759999999999881	-4.302493257247995	-1.022137472386774	31.65842404490346	0	0.9399999999999999	0	43.50496327936108	-10.50124913945367	-10.49450427753003	54.26346918089557	0.9470762007610981	0	0	0	43.50496327936108	-10.50124913945367	-10.49450427753003	54.26346918089557	0.9470762007610981	0	0	0	0.4871930135634469	-4.407110720307986	10.88444284512095	60.23172712542681	-17.28706037615638	-4.612571422641043	29.98440983245382	93.06882117100554	0	0	17.94307271392799	-3.801091385172951	-0.6405303448168319	51.50808905087889	135.4080355579807	0	0
9.77999999999988	-4.325703712393127	-1.048284176860415	31.8266999787346	0	0.9399999999999999	0	43.50569780304129	-10.50038876867183	-10.49395990751486	54.26371128333259	0.9470804262457513	0	0	0	43.50569780304129	-10.50038876867183	-10.49395990751486	54.26371128333259	0.9470804262457513	0	0	0	0.4514544165636231	-4.415698331604632	10.82683593545218	60.66904328988999	-16.74205127244775	-4.598193929259887	28.80077565460428	93.99767806194657	0	0	18.003253431601	-3.750231578464736	-0.5826890053889474	51.49811297386859	135.3731487180908	0	0
9.79999999999988	-4.326345820212439	-1.043354726207563	31.87946663421812	0	0.9399999999999999	0	43.50607261834565	-10.49996008322085	-10.49368642327454	54.2638374984661	0.9470826291153969	0	0	0	43.50607261834565	-10.49996008322085	-10.49368642327454	54.2638374984661	0.9470826291153969	0	0	0	0.452535749050733	-4.410120293790044	10.81166178442381	60.62717810145765	-16.76310003195278	-4.60442196425962	28.05368079889631	94.64731572421105	0	0	17.97574772728298	-3.716046649223217	-0.6369625980868678	51.49156753110745	135.3992534134529	0	0
9.819999999999879	-4.354117286045144	-1.091149498316413	32.00495020659982	0	0.9399999999999999	0	43.50679603836902	-10.4991141618187	-10.49315072562057	54.26407596904875	0.9470867912122334	0	0	0	43.50679603836902	-10.4991141618187	-10.49315072562057	54.26407596904875	0.9470867912122334	0	0	0	0.4011486942640743	-4.434604501252149	10.72961557764669	61.13856975543641	-16.17670568496538	-4.417678565937846	26.73956851774439	94.89432241889114	0	0	18.06026097762587	-3.71146338621137	-0.6254914403137304	51.51315988028578	135.463386098827	0	0
9.839999999999879	-4.389082907514269	-1.125079899141638	32.14950540697301	0	0.9399999999999999	0	43.50761045415781	-10.49816150682741	-10.49254738219534	54.26434407411716	0.9470914705284184	0	0	0	43.50761045415781	-10.49816150682741	-10.49254738219534	54.26434407411716	0.9470914705284184	0	0	0	0.3493501962898203	-4.442795919542208	10.59416249096827	61.75942405235753	-15.21916722509193	-3.745327166615807	25.72441109728956	94.51993563560112	0	0	18.12341444113907	-3.708547551447442	-0.6318443568740197	51.54152455889198	135.496762716549	0	0
